<svg width="1024" height="1024" viewBox="0 0 1024 1024" fill="none" xmlns="http://www.w3.org/2000/svg">
<g clip-path="url(#clip0_1_196)">
<rect width="1024" height="1024" fill="#F8F9FA"/>
<path fill-rule="evenodd" clip-rule="evenodd" d="M590.963 98.0835C594.212 97.8586 597.428 98.088 600.612 98.7719C671.533 139.507 741.833 181.318 811.483 224.191L823.198 233.15C824.117 234.528 824.117 235.907 823.198 237.285C813.658 244.009 803.768 250.222 793.566 255.892C671.414 324.312 549.666 393.456 428.33 463.317C427.184 574.952 426.494 686.589 426.263 798.23C350.074 841.495 273.579 884.223 196.785 926.407C195.639 911.269 194.95 896.102 194.718 880.924C193.569 695.778 193.799 510.634 195.407 325.492C327.471 250.058 459.323 174.254 590.963 98.0835Z" fill="#2B3A67"/>
<path fill-rule="evenodd" clip-rule="evenodd" d="M596.028 420.13C602.108 419.721 607.621 421.33 612.567 424.954C684.667 467.888 756.338 511.535 827.573 555.888C831.249 560.941 831.249 565.994 827.573 571.048C752.557 613.258 677.442 655.295 602.231 697.158C557.498 671.568 513.381 644.914 469.919 617.219C469.002 575.871 469.002 534.524 469.919 493.177C511.857 468.659 553.894 444.31 596.028 420.13Z" fill="#2B3A67"/>
</g>
<defs>
<clipPath id="clip0_1_196">
<rect width="1024" height="1024" fill="white"/>
</clipPath>
</defs>
</svg>
